# xmcd
#
# Track frame offsets:
#	150
#	18967
#	41712
#	53561
#	65603
#	77027
#	92831
#	103558
#	115434
#	127425
#	142787
#	155691
#	167316
#	180268
#	194249
#	206395
#	226647
#	240679
#
# Disc length: 3441 seconds
#
# Revision: 1
# Processed by: cddbd v1.5.2PL0 Copyright (c) Steve Scherf et al.
# Submitted via: audiograbber 1.83.01
#
DISCID=ee0d6f12
DTITLE=Various Artist - Best Of Country Songs Disc 12
DYEAR=2011
DGENRE=Country
TTITLE0=Allan Fontenot - Don't Mess With My Toot Toot
TTITLE1=Beausoleil - Acadian Two Step
TTITLE2=Eddy Raven - La Belle De La Lousiana
TTITLE3=Happy Fats - Les Vauves De La Coules
TTITLE4=Cajun Born Feat. Warren Storm - La Maison A Deux Portes
TTITLE5=Michael Doucet - La Valse De KLFY
TTITLE6=Eddy Raven - Alligator Bayou
TTITLE7=Blackie Feorestier - Bayou Sam
TTITLE8=Nathan Abshire - Le Blues Francais
TTITLE9=Jonno - Jambalaya
TTITLE10=Frenchie Burke - Cotton Eyed Joe
TTITLE11=Rusty and Doug Kershaw - Luisiana Man
TTITLE12=Bobby Charles - See You Later Alligator
TTITLE13=C.J.Chenier - Man Smanrt. Woman Smarter
TTITLE14=Leroy Broussard - Lemonade Song
TTITLE15=Swamp Venable and Beaubaissan Cajun Band - Watermelon Man
TTITLE16=Pierre Roy Francois - Luisiana Moon
TTITLE17=La Touche - Alligator Walz
EXTD=
EXTT0=
EXTT1=
EXTT2=
EXTT3=
EXTT4=
EXTT5=
EXTT6=
EXTT7=
EXTT8=
EXTT9=
EXTT10=
EXTT11=
EXTT12=
EXTT13=
EXTT14=
EXTT15=
EXTT16=
EXTT17=
PLAYORDER=
